# xmcd CD database file
#
# Track frame offsets:
#	150
#	30343
#	48529
#	64836
#	89207
#	115667
#	131599
#	200453
#	213155
#	232582
#	257073
#	271439
#
# Disc length: 4186 seconds
#
# Revision: 6
# Processed by: cddbd v1.5.2PL0 Copyright (c) Steve Scherf et al.
# Submitted via: CDex 1.50
#
DISCID=a610580c
DTITLE=Klaus Doldinger - Early Doldinger - The Complete Philips Sessions CD04
DYEAR=2006
DGENRE=Jazz
TTITLE0=The Surrey With The Fringe On Top (live)
TTITLE1=What's New? (live)
TTITLE2=Midnight Session
TTITLE3=For Two Only (live)
TTITLE4=Sweetie's Bounce (live)
TTITLE5=Joes's Blues
TTITLE6=Like Someone In Love (live)
TTITLE7=The Night Time
TTITLE8=Pavanna 'The Earl of Salisbury'
TTITLE9=Ciacona in F minor
TTITLE10=Waltz Of The Jive Cats (live)
TTITLE11=Quartenwalzer (live)
EXTD=YEAR: 2006
EXTT0=
EXTT1=
EXTT2=
EXTT3=
EXTT4=
EXTT5=
EXTT6=
EXTT7=
EXTT8=
EXTT9=
EXTT10=
EXTT11=
PLAYORDER=
